STARTFONT 2.1
COMMENT Exported by Fony v1.4.7
FONT gnc255frequency
SIZE 18 96 96
FONTBOUNDINGBOX 14 17 0 2
STARTPROPERTIES 6
COPYRIGHT "Created with Fony 1.4.7"
RESOLUTION_X 96
RESOLUTION_Y 96
FONT_ASCENT 20
FONT_DESCENT -2
DEFAULT_CHAR 0
ENDPROPERTIES
CHARS 12
STARTCHAR 046
ENCODING 46
SWIDTH 360 0
DWIDTH 5 0
BBX 5 18 0 2
BITMAP
00
00
00
00
00
00
00
00
00
00
00
00
00
00
00
E0
E0
E0
ENDCHAR
STARTCHAR 047
ENCODING 47
SWIDTH 936 0
DWIDTH 13 0
BBX 13 18 0 2
BITMAP
0000
0000
0000
0000
0000
0000
0000
0000
0000
0000
0000
0000
0000
0000
0000
0000
0000
0000
ENDCHAR
STARTCHAR 048
ENCODING 48
SWIDTH 936 0
DWIDTH 13 0
BBX 13 18 0 2
BITMAP
3F80
7FC0
FFE0
E0E0
E0E0
E0E0
E0E0
E0E0
E0E0
E0E0
E0E0
E0E0
E0E0
E0E0
E0E0
FFE0
7FC0
3F80
ENDCHAR
STARTCHAR 049
ENCODING 49
SWIDTH 936 0
DWIDTH 13 0
BBX 13 18 0 2
BITMAP
3E00
7E00
7E00
0E00
0E00
0E00
0E00
0E00
0E00
0E00
0E00
0E00
0E00
0E00
0E00
7FC0
7FC0
7FC0
ENDCHAR
STARTCHAR 050
ENCODING 50
SWIDTH 936 0
DWIDTH 13 0
BBX 13 18 0 2
BITMAP
3F80
7FC0
FFE0
E0E0
00E0
00E0
01C0
0380
0700
0E00
1C00
3800
7000
E000
E000
FFE0
FFE0
FFE0
ENDCHAR
STARTCHAR 051
ENCODING 51
SWIDTH 936 0
DWIDTH 13 0
BBX 13 18 0 2
BITMAP
3F80
7FC0
FFE0
E0E0
00E0
00E0
00E0
1FC0
1FC0
1FC0
00E0
00E0
00E0
00E0
E0E0
FFE0
7FC0
3F80
ENDCHAR
STARTCHAR 052
ENCODING 52
SWIDTH 936 0
DWIDTH 13 0
BBX 13 18 0 2
BITMAP
0380
0780
0F80
1F80
3B80
7380
E380
E380
E380
FFE0
FFE0
FFE0
0380
0380
0380
0380
0380
0380
ENDCHAR
STARTCHAR 053
ENCODING 53
SWIDTH 936 0
DWIDTH 13 0
BBX 13 18 0 2
BITMAP
FFE0
FFE0
FFE0
E000
E000
E000
E000
FF80
FFC0
FFE0
00E0
00E0
00E0
00E0
E0E0
FFE0
7FC0
3F80
ENDCHAR
STARTCHAR 054
ENCODING 54
SWIDTH 936 0
DWIDTH 13 0
BBX 13 18 0 2
BITMAP
3FC0
7FC0
FFC0
E000
E000
E000
E000
FF80
FFC0
FFE0
E0E0
E0E0
E0E0
E0E0
E0E0
FFE0
7FC0
3F80
ENDCHAR
STARTCHAR 055
ENCODING 55
SWIDTH 936 0
DWIDTH 13 0
BBX 13 18 0 2
BITMAP
FFE0
FFE0
FFE0
00E0
00E0
00E0
01E0
03C0
0780
0E00
1C00
1C00
1C00
1C00
1C00
1C00
1C00
1C00
ENDCHAR
STARTCHAR 056
ENCODING 56
SWIDTH 936 0
DWIDTH 13 0
BBX 13 18 0 2
BITMAP
3F80
7FC0
FFE0
E0E0
E0E0
E0E0
E0E0
7FC0
7FC0
7FC0
E0E0
E0E0
E0E0
E0E0
E0E0
FFE0
7FC0
3F80
ENDCHAR
STARTCHAR 057
ENCODING 57
SWIDTH 936 0
DWIDTH 13 0
BBX 13 18 0 2
BITMAP
3F80
7FC0
FFE0
E0E0
E0E0
E0E0
E0E0
E0E0
FFE0
7FE0
3FE0
00E0
00E0
00E0
00E0
7FE0
7FC0
7F80
ENDCHAR
ENDFONT
